<?xml version="1.0" encoding="UTF-8" standalone="no"?>
<!-- Generator: Adobe Illustrator 16.0.0, SVG Export Plug-In . SVG Version: 6.00 Build 0)  -->

<svg
   xmlns:dc="http://purl.org/dc/elements/1.1/"
   xmlns:cc="http://creativecommons.org/ns#"
   xmlns:rdf="http://www.w3.org/1999/02/22-rdf-syntax-ns#"
   xmlns:svg="http://www.w3.org/2000/svg"
   xmlns="http://www.w3.org/2000/svg"
   xmlns:sodipodi="http://sodipodi.sourceforge.net/DTD/sodipodi-0.dtd"
   xmlns:inkscape="http://www.inkscape.org/namespaces/inkscape"
   version="1.1"
   id="Calque_2"
   x="0px"
   y="0px"
   width="640"
   height="1136"
   viewBox="0 0 640 1136"
   enable-background="new 0 0 181 92"
   xml:space="preserve"
   sodipodi:docname="fabmob-splash.svg"
   inkscape:version="0.92.2 5c3e80d, 2017-08-06"
   inkscape:export-filename="/Users/ICIA-Dev/Documents/PROJECTS/e-mission/e-mission-phone/resources/fabmob/fabmob-splash.png"
   inkscape:export-xdpi="96"
   inkscape:export-ydpi="96"><metadata
     id="metadata89"><rdf:RDF><cc:Work
         rdf:about=""><dc:format>image/svg+xml</dc:format><dc:type
           rdf:resource="http://purl.org/dc/dcmitype/StillImage" /><dc:title /></cc:Work></rdf:RDF></metadata><defs
     id="defs87" /><sodipodi:namedview
     pagecolor="#ffffff"
     bordercolor="#666666"
     borderopacity="1"
     objecttolerance="10"
     gridtolerance="10"
     guidetolerance="10"
     inkscape:pageopacity="0"
     inkscape:pageshadow="2"
     inkscape:window-width="2117"
     inkscape:window-height="1277"
     id="namedview85"
     showgrid="false"
     inkscape:zoom="0.63189038"
     inkscape:cx="-60.163219"
     inkscape:cy="755.57302"
     inkscape:window-x="0"
     inkscape:window-y="0"
     inkscape:window-maximized="0"
     inkscape:current-layer="Calque_2" /><g
     id="g976"
     transform="matrix(2.8776008,0,0,2.8776008,59.015995,434.40882)"><polygon
       points="57.699,65.983 85.71,49.869 85.716,17.625 85.706,17.617 57.699,33.751 "
       id="polygon2"
       style="fill:#d2ce00" /><path
       d="m 57.252,68.898 h 2.243 v 6.611 h 4.213 v 2.177 h -6.456 z"
       id="path4"
       inkscape:connector-curvature="0"
       style="fill:#1a171b" /><path
       d="m 72.242,68.898 3.549,8.788 H 73.333 L 72.85,76.403 h -3.463 l -0.484,1.283 h -2.454 l 3.56,-8.788 z m -1.116,2.885 -0.969,2.58 h 1.928 z"
       id="path6"
       inkscape:connector-curvature="0"
       style="fill:#1a171b" /><path
       d="m 84.231,68.898 h 6.524 v 2.184 h -4.282 v 1.554 h 3.594 v 2.041 h -3.594 v 3.01 h -2.242 z"
       id="path8"
       inkscape:connector-curvature="0"
       style="fill:#1a171b" /><path
       d="m 98.5,68.898 3.55,8.788 h -2.456 l -0.488,-1.283 h -3.458 l -0.484,1.283 h -2.457 l 3.562,-8.788 z m -1.116,2.885 -0.968,2.58 h 1.928 z"
       id="path10"
       inkscape:connector-curvature="0"
       style="fill:#1a171b" /><path
       d="m 105.32,68.898 h 4.371 c 1.894,0 2.854,1.023 2.854,2.42 0,0.89 -0.419,1.489 -1.072,1.85 0.889,0.337 1.464,1.012 1.464,2.039 0,1.453 -1.082,2.479 -2.865,2.479 h -4.751 v -8.788 z m 2.25,2.047 v 1.4 h 1.862 c 0.607,0 0.832,-0.283 0.832,-0.703 0,-0.414 -0.235,-0.697 -0.71,-0.697 z m 0,3.16 v 1.539 h 2.254 c 0.611,0 0.833,-0.324 0.833,-0.785 0,-0.453 -0.222,-0.754 -0.833,-0.754 z"
       id="path12"
       inkscape:connector-curvature="0"
       style="fill:#1a171b" /><path
       d="m 120.793,68.898 c 2.25,0 3.29,1.463 3.29,3.209 0,1.229 -0.554,2.379 -1.74,2.916 l 1.907,2.663 h -2.696 l -1.662,-2.356 h -1.153 v 2.356 h -2.241 v -8.788 z m -2.055,2.047 v 2.344 h 1.929 c 0.899,0 1.238,-0.547 1.238,-1.156 0,-0.677 -0.339,-1.188 -1.238,-1.188 z"
       id="path14"
       inkscape:connector-curvature="0"
       style="fill:#1a171b" /><path
       d="m 129.975,68.898 v 8.788 h -2.254 v -8.788 z"
       id="path16"
       inkscape:connector-curvature="0"
       style="fill:#1a171b" /><path
       d="m 137.861,68.728 c 2.571,0 4.669,2.05 4.669,4.562 0,1.67 -0.914,3.123 -2.274,3.926 0.402,0.281 0.76,0.484 1.146,0.484 0.126,0 0.528,-0.037 0.768,-0.396 l 1.7,1.375 c -0.627,0.867 -1.657,1.195 -2.456,1.195 -1.772,0 -2.793,-1.578 -4.316,-2.085 -2.185,-0.349 -3.897,-2.241 -3.897,-4.499 -0.002,-2.513 2.125,-4.562 4.66,-4.562 z m 0,6.952 c 1.354,0 2.395,-1.061 2.395,-2.391 0,-1.327 -1.04,-2.389 -2.395,-2.389 -1.317,0 -2.388,1.062 -2.388,2.389 10e-4,1.33 1.071,2.391 2.388,2.391 z"
       id="path18"
       inkscape:connector-curvature="0"
       style="fill:#1a171b" /><path
       d="m 154.025,68.898 v 4.943 c 0,2.264 -1.422,4.015 -4.049,4.015 -2.635,0 -4.034,-1.751 -4.034,-4.015 v -4.943 h 2.256 v 4.811 c 0,1.275 0.608,1.971 1.778,1.971 1.187,0 1.806,-0.695 1.806,-1.971 v -4.811 z"
       id="path20"
       inkscape:connector-curvature="0"
       style="fill:#1a171b" /><path
       d="m 157.847,68.898 h 6.747 v 2.184 h -4.497 v 1.264 h 3.699 v 2.039 h -3.699 v 1.125 h 4.497 v 2.177 h -6.747 z"
       id="path22"
       inkscape:connector-curvature="0"
       style="fill:#1a171b" /><path
       d="m 57.252,82.422 h 4.079 c 2.751,0 4.16,2.004 4.16,4.395 0,2.398 -1.409,4.391 -4.16,4.391 h -4.079 z m 2.257,2.182 v 4.432 h 1.656 c 1.339,0 2.049,-0.902 2.049,-2.219 0,-1.32 -0.71,-2.213 -2.049,-2.213 z"
       id="path24"
       inkscape:connector-curvature="0"
       style="fill:#1a171b" /><path
       d="m 68.8,82.422 h 6.75 v 2.182 h -4.494 v 1.264 h 3.695 v 2.039 h -3.695 v 1.129 h 4.494 v 2.172 H 68.8 Z"
       id="path26"
       inkscape:connector-curvature="0"
       style="fill:#1a171b" /><path
       d="m 80.688,88.57 v 0.054 c 0,0.339 0.466,0.8 1.49,0.8 0.846,0 1.114,-0.281 1.114,-0.541 0,-0.373 -0.437,-0.597 -1.5,-0.957 -1.401,-0.463 -3.232,-1.135 -3.232,-2.951 0,-1.682 1.429,-2.727 3.437,-2.727 2.055,0 3.592,1.093 3.592,2.84 v 0.124 H 83.398 V 85.13 c 0,-0.427 -0.443,-0.935 -1.354,-0.935 -0.767,0 -1.072,0.307 -1.072,0.598 0,0.351 0.406,0.531 1.451,0.891 1.22,0.43 3.294,1.15 3.294,3.074 0,1.717 -1.487,2.616 -3.493,2.616 -2.109,0 -3.732,-0.981 -3.732,-2.706 V 88.57 Z"
       id="path28"
       inkscape:connector-curvature="0"
       style="fill:#1a171b" /><path
       d="m 94.858,91.207 v -8.785 h 2.266 l 2.537,5.551 2.547,-5.551 h 2.263 v 8.785 h -2.241 v -4.131 l -1.825,3.793 h -1.477 l -1.825,-3.793 v 4.131 z"
       id="path30"
       inkscape:connector-curvature="0"
       style="fill:#1a171b" /><path
       d="m 112.251,82.248 c 2.572,0 4.669,2.055 4.669,4.568 0,2.512 -2.097,4.561 -4.669,4.561 -2.534,0 -4.665,-2.049 -4.665,-4.561 0,-2.513 2.131,-4.568 4.665,-4.568 z m 0,6.955 c 1.354,0 2.388,-1.057 2.388,-2.387 0,-1.333 -1.033,-2.391 -2.388,-2.391 -1.316,0 -2.388,1.058 -2.388,2.391 0,1.33 1.072,2.387 2.388,2.387 z"
       id="path32"
       inkscape:connector-curvature="0"
       style="fill:#1a171b" /><path
       d="m 119.987,82.422 h 4.374 c 1.891,0 2.853,1.024 2.853,2.42 0,0.889 -0.42,1.488 -1.074,1.852 0.893,0.336 1.465,1.013 1.465,2.035 0,1.456 -1.079,2.479 -2.862,2.479 h -4.755 v -8.786 z m 2.255,2.049 v 1.396 h 1.861 c 0.606,0 0.829,-0.279 0.829,-0.695 0,-0.422 -0.232,-0.701 -0.703,-0.701 z m 0,3.154 v 1.545 h 2.253 c 0.608,0 0.834,-0.327 0.834,-0.789 0,-0.451 -0.226,-0.756 -0.834,-0.756 z"
       id="path34"
       inkscape:connector-curvature="0"
       style="fill:#1a171b" /><path
       d="m 133.401,82.398 v 8.789 h -2.254 v -8.789 z"
       id="path36"
       inkscape:connector-curvature="0"
       style="fill:#1a171b" /><path
       d="m 137.342,82.398 h 2.248 v 6.613 h 4.212 v 2.176 h -6.46 z"
       id="path38"
       inkscape:connector-curvature="0"
       style="fill:#1a171b" /><path
       d="m 149.243,82.398 v 8.789 h -2.255 v -8.789 z"
       id="path40"
       inkscape:connector-curvature="0"
       style="fill:#1a171b" /><path
       d="m 151.992,82.398 h 7.73 v 2.186 h -2.738 v 6.604 h -2.249 v -6.604 h -2.743 z"
       id="path42"
       inkscape:connector-curvature="0"
       style="fill:#1a171b" /><path
       d="m 162.731,82.463 h 6.751 v 2.188 h -4.497 v 1.26 h 3.699 v 2.043 h -3.699 v 1.128 h 4.497 v 2.172 h -6.751 z m 1.368,-1.734 2.928,-2.088 1.095,1.896 -3.271,1.498 z"
       id="path44"
       inkscape:connector-curvature="0"
       style="fill:#1a171b" /><path
       d="m 174.634,88.616 v 0.056 c 0,0.338 0.459,0.801 1.482,0.801 0.846,0 1.118,-0.281 1.118,-0.541 0,-0.369 -0.439,-0.598 -1.497,-0.959 -1.401,-0.461 -3.234,-1.139 -3.234,-2.949 0,-1.678 1.427,-2.73 3.437,-2.73 2.051,0 3.592,1.092 3.592,2.841 v 0.122 h -2.195 v -0.078 c 0,-0.428 -0.439,-0.935 -1.352,-0.935 -0.768,0 -1.069,0.304 -1.069,0.599 0,0.35 0.403,0.527 1.451,0.889 1.217,0.428 3.291,1.152 3.291,3.078 0,1.713 -1.486,2.615 -3.492,2.615 -2.11,0 -3.73,-0.98 -3.73,-2.705 v -0.103 h 2.198 z"
       id="path46"
       inkscape:connector-curvature="0"
       style="fill:#1a171b" /><g
       id="g50"><rect
         x="1.733"
         y="65.873001"
         width="0.0040000002"
         height="0.0070000002"
         id="rect48"
         style="fill:#c0c948" /></g><polygon
       points="1.742,65.879 1.738,65.881 29.657,82.066 57.699,65.983 29.75,49.742 3.369,64.928 "
       id="polygon52"
       style="fill:#5eb8e0" /><polygon
       points="57.699,33.751 29.75,17.511 29.75,49.742 57.699,65.983 "
       id="polygon54"
       style="fill:#97b837" /><polygon
       points="29.75,17.511 1.738,33.625 1.732,65.873 1.738,65.877 29.75,49.742 "
       id="polygon56"
       style="fill:#9dcdd7" /><path
       d="m 67.619,45.996 v -6.961 h 1.795 l 2.006,4.401 2.017,-4.401 h 1.796 v 6.961 h -1.776 v -3.274 l -1.447,3.01 h -1.168 l -1.448,-3.01 v 3.274 z"
       id="path58"
       inkscape:connector-curvature="0"
       style="fill:#1a171b" /><path
       d="m 40.703,39.036 h 3.467 c 1.501,0 2.26,0.815 2.26,1.916 0,0.703 -0.33,1.181 -0.85,1.469 0.706,0.265 1.161,0.805 1.161,1.617 0,1.151 -0.855,1.958 -2.269,1.958 h -3.77 v -6.96 z m 1.785,1.625 v 1.107 h 1.478 c 0.479,0 0.661,-0.227 0.661,-0.555 0,-0.333 -0.188,-0.552 -0.566,-0.552 z m 0,2.498 v 1.223 h 1.789 c 0.482,0 0.66,-0.254 0.66,-0.622 0,-0.362 -0.178,-0.601 -0.66,-0.601 z"
       id="path60"
       inkscape:connector-curvature="0"
       style="fill:#1a171b" /><path
       d="M 48.866,58.781 31.244,47.289 V 26.396 c 0,-0.83 -0.666,-1.488 -1.488,-1.488 -0.823,0 -1.489,0.659 -1.489,1.488 V 47.274 L 10.633,58.781 c -0.69,0.452 -0.884,1.374 -0.436,2.063 0.451,0.688 1.374,0.88 2.064,0.435 L 29.75,49.867 47.239,61.279 c 0.688,0.447 1.612,0.254 2.061,-0.435 0.45,-0.689 0.258,-1.611 -0.434,-2.063 z"
       id="path62"
       inkscape:connector-curvature="0"
       style="fill:#1a171b" /><path
       d="m 12.84,39.033 h 5.172 v 1.732 h -3.393 v 1.233 h 2.846 v 1.615 h -2.846 v 2.384 H 12.84 Z"
       id="path64"
       inkscape:connector-curvature="0"
       style="fill:#1a171b" /><path
       d="m 30.472,59.857 2.812,6.968 h -1.947 l -0.383,-1.017 h -2.742 l -0.386,1.017 H 25.879 L 28.7,59.857 Z m -0.885,2.29 -0.771,2.046 h 1.529 z"
       id="path66"
       inkscape:connector-curvature="0"
       style="fill:#1a171b" /><g
       id="g72"><polygon
         points="57.701,33.751 85.71,17.613 85.716,17.611 57.796,1.424 29.756,17.509 "
         id="polygon68"
         style="fill:#ffe000" /><polygon
         points="85.682,17.619 85.678,17.615 85.671,17.617 85.682,17.625 "
         id="polygon70"
         style="fill:#c0c948" /></g><g
       id="g76"><rect
         x="29.862"
         y="50.068001"
         width="0.011"
         height="0.0080000004"
         id="rect74"
         style="fill:#c0c948" /></g><path
       d="m 38.578,24.507 17.619,11.495 v 20.896 c 0,0.819 0.666,1.489 1.49,1.489 0.824,0 1.487,-0.67 1.487,-1.489 V 36.009 L 76.811,24.507 c 0.688,-0.453 0.885,-1.373 0.434,-2.065 -0.448,-0.689 -1.372,-0.879 -2.063,-0.432 L 57.695,33.418 40.206,22.009 c -0.691,-0.447 -1.615,-0.257 -2.061,0.432 -0.451,0.693 -0.257,1.613 0.433,2.066 z"
       id="path78"
       inkscape:connector-curvature="0"
       style="fill:#1a171b" /><path
       d="m 57.619,14.65 c 2.032,0 3.696,1.621 3.696,3.615 0,1.992 -1.664,3.609 -3.696,3.609 -2.009,0 -3.699,-1.617 -3.699,-3.609 0,-1.994 1.69,-3.615 3.699,-3.615 z m 0,5.511 c 1.07,0 1.892,-0.843 1.892,-1.896 0,-1.053 -0.821,-1.894 -1.892,-1.894 -1.046,0 -1.893,0.84 -1.893,1.894 10e-4,1.053 0.847,1.896 1.893,1.896 z"
       id="path80"
       inkscape:connector-curvature="0"
       style="fill:#1a171b" /></g></svg>